<svg width="34" height="30" viewBox="0 0 34 30" fill="none" xmlns="http://www.w3.org/2000/svg">
<path d="M1.70442 27.8743C1.31506 27.484 1.31506 26.8522 1.70442 26.4619L12.3135 15.8265C12.7029 15.4362 12.7029 14.8044 12.3135 14.414L1.70442 3.77868C1.31506 3.38836 1.31506 2.75654 1.70442 2.36622L2.3191 1.75001C2.70982 1.35832 3.34434 1.35832 3.73506 1.75001L16.3678 14.414C16.7572 14.8044 16.7572 15.4362 16.3678 15.8265L3.73506 28.4906C3.34433 28.8822 2.70982 28.8822 2.3191 28.4906L1.70442 27.8743Z" fill="#141414" stroke="#141414"/>
<path d="M17.6319 27.8743C17.2425 27.484 17.2425 26.8522 17.6319 26.4619L28.241 15.8265C28.6304 15.4362 28.6304 14.8044 28.241 14.414L17.6319 3.77868C17.2425 3.38836 17.2425 2.75654 17.6319 2.36622L18.2466 1.75001C18.6373 1.35832 19.2718 1.35832 19.6625 1.75001L32.2953 14.414C32.6847 14.8044 32.6847 15.4362 32.2953 15.8265L19.6625 28.4906C19.2718 28.8822 18.6373 28.8822 18.2466 28.4906L17.6319 27.8743Z" fill="#141414" stroke="#141414"/>
</svg>
