<svg width="13" height="11" viewBox="0 0 13 11" fill="none" xmlns="http://www.w3.org/2000/svg">
<path d="M7.66859 2.01371C8.28439 1.46675 9.35355 0.631227 9.90533 0.265927C10.4421 -0.089431 10.8083 -0.0888142 11.5415 0.268822C12.5445 0.758099 12.4438 1.05245 10.6398 2.90588C9.48208 4.09542 9.22816 4.41028 9.25397 4.62457C9.2779 4.8227 9.5039 5.03431 10.1775 5.48909C10.668 5.82032 11.1188 6.09126 11.1792 6.09137C11.3691 6.09158 12.0487 6.85532 12.1224 7.15122C12.2318 7.59058 11.7002 9.8062 11.464 9.89569C11.2635 9.97161 10.9909 9.83562 9.76746 9.0495C9.18598 8.67581 8.69274 8.37007 8.67144 8.37007C8.65014 8.37007 8.27473 8.13703 7.8371 7.8522C7.39946 7.56738 6.9398 7.33434 6.81567 7.33434C6.4902 7.33434 6.0659 7.66184 4.86243 8.84205C3.5382 10.1407 3.39499 10.2344 2.73282 10.2344C2.28795 10.2344 2.04159 10.144 1.1553 9.6552C0.577599 9.33671 0.104919 9.01429 0.104919 8.93879C0.104919 8.86328 0.857423 8.09311 1.77718 7.22735C2.69682 6.36148 3.47578 5.58531 3.50799 5.50235C3.60021 5.26517 3.42101 5.03834 2.76231 4.5586L1.57846 3.69593C1.26359 3.46642 0.77968 3.09149 0.502998 2.8629L0 2.44716V1.68C0 1.04033 0.0364057 0.876901 0.218971 0.696684C0.495233 0.423978 0.66185 0.46271 2.07233 1.12765C2.66766 1.40822 3.17716 1.63785 3.20476 1.63785C3.23235 1.63785 3.69107 1.89729 4.22429 2.21433C5.55083 3.00314 5.50823 2.98429 5.96454 2.98429C6.41109 2.98429 6.87066 2.72256 7.66859 2.01371Z" fill="#141414"/>
</svg>
