<svg width="139" height="139" viewBox="0 0 139 139" fill="none" xmlns="http://www.w3.org/2000/svg">
<path d="M69.1333 0C30.9557 0 0 30.9557 0 69.1333C0 107.311 30.9557 138.267 69.1333 138.267C107.311 138.267 138.267 107.311 138.267 69.1333C138.267 30.9557 107.311 0 69.1333 0ZM102.357 52.1123C102.404 52.8376 102.404 53.5937 102.404 54.3344C102.404 76.9879 85.1512 103.083 53.6246 103.083C43.9027 103.083 34.8907 100.259 27.2984 95.3977C28.6872 95.552 30.0143 95.6138 31.434 95.6138C39.4584 95.6138 46.8347 92.8978 52.7141 88.2992C45.1835 88.1449 38.8566 83.2068 36.6962 76.4169C39.335 76.8027 41.7114 76.8027 44.4274 76.1083C40.5498 75.3205 37.0646 73.2146 34.5638 70.1484C32.063 67.0822 30.7008 63.2447 30.7087 59.2879V59.0719C32.9772 60.3527 35.6468 61.1397 38.4399 61.2478C36.0919 59.6829 34.1663 57.5629 32.8338 55.0756C31.5014 52.5883 30.8032 49.8107 30.8013 46.989C30.8013 43.7947 31.6346 40.8781 33.1315 38.3474C37.4354 43.6456 42.806 47.9788 48.8943 51.0655C54.9825 54.1522 61.6522 55.9232 68.4697 56.2634C66.047 44.6126 74.7503 35.1839 85.2129 35.1839C90.151 35.1839 94.5953 37.2517 97.7279 40.5849C101.601 39.8596 105.305 38.4091 108.607 36.4647C107.326 40.4306 104.641 43.7793 101.077 45.8934C104.533 45.523 107.866 44.5663 110.953 43.2237C108.623 46.6495 105.706 49.6895 102.357 52.1123V52.1123Z" fill="#141414"/>
</svg>
